<svg width="16" height="17" viewBox="0 0 16 17" fill="none" xmlns="http://www.w3.org/2000/svg">
<path d="M11.6464 6.74319C11.8417 6.95609 12.1583 6.95609 12.3536 6.74319C12.5488 6.53029 12.5488 6.18511 12.3536 5.97221L9.06066 2.38189C8.47487 1.74319 7.52513 1.74319 6.93934 2.38189L3.64645 5.97221C3.45118 6.18511 3.45118 6.53029 3.64645 6.74319C3.84171 6.95609 4.15829 6.95609 4.35355 6.74319L7.64645 3.15286C7.84171 2.93996 8.15829 2.93996 8.35355 3.15286L11.6464 6.74319Z" fill="#1C1C1C"/>
<path d="M4.35355 10.0625C4.15829 9.84964 3.84171 9.84964 3.64645 10.0625C3.45118 10.2754 3.45118 10.6206 3.64645 10.8335L6.93934 14.4238C7.52513 15.0625 8.47487 15.0625 9.06066 14.4238L12.3536 10.8335C12.5488 10.6206 12.5488 10.2754 12.3536 10.0625C12.1583 9.84964 11.8417 9.84964 11.6464 10.0625L8.35355 13.6529C8.15829 13.8658 7.84171 13.8658 7.64645 13.6529L4.35355 10.0625Z" fill="#1C1C1C"/>
</svg>
