<svg width="20" height="20" viewBox="0 0 20 20" fill="none" xmlns="http://www.w3.org/2000/svg">
<path d="M17.5 10C17.5 14.1421 14.1422 17.5 10 17.5C5.85785 17.5 2.5 14.1421 2.5 10C2.5 5.85787 5.85785 2.5 10 2.5C14.1422 2.5 17.5 5.85787 17.5 10Z" fill="black" fill-opacity="0.1"/>
<path fill-rule="evenodd" clip-rule="evenodd" d="M10 1.875C10 1.875 11.6526 1.875 13.1628 2.51376C13.1628 2.51376 14.621 3.13053 15.7452 4.25476C15.7452 4.25476 16.8695 5.37899 17.4862 6.83719C17.4862 6.83719 18.125 8.34739 18.125 10C18.125 10 18.125 11.6526 17.4862 13.1628C17.4862 13.1628 16.8695 14.621 15.7452 15.7452C15.7452 15.7452 14.621 16.8695 13.1628 17.4862C13.1628 17.4862 11.6526 18.125 10 18.125C10 18.125 8.34739 18.125 6.83719 17.4862C6.83719 17.4862 5.37899 16.8695 4.25476 15.7452C4.25476 15.7452 3.13053 14.621 2.51376 13.1628C2.51376 13.1628 1.875 11.6526 1.875 10C1.875 10 1.875 8.34739 2.51376 6.83719C2.51376 6.83719 3.13053 5.37899 4.25476 4.25476C4.25476 4.25476 5.37899 3.13053 6.83719 2.51376C6.83719 2.51376 8.34739 1.875 10 1.875ZM10 3.125C10 3.125 8.60087 3.125 7.32413 3.66501C7.32413 3.66501 6.09047 4.18681 5.13864 5.13864C5.13864 5.13864 4.18681 6.09047 3.66502 7.32413C3.66502 7.32413 3.125 8.60087 3.125 10C3.125 10 3.125 11.3991 3.66502 12.6759C3.66502 12.6759 4.18681 13.9095 5.13864 14.8614C5.13864 14.8614 6.09047 15.8132 7.32413 16.335C7.32413 16.335 8.60087 16.875 10 16.875C10 16.875 11.3991 16.875 12.6759 16.335C12.6759 16.335 13.9095 15.8132 14.8614 14.8614C14.8614 14.8614 15.8132 13.9095 16.335 12.6759C16.335 12.6759 16.875 11.3991 16.875 10C16.875 10 16.875 8.60087 16.335 7.32413C16.335 7.32413 15.8132 6.09047 14.8614 5.13864C14.8614 5.13864 13.9095 4.18681 12.6759 3.66501C12.6759 3.66501 11.3991 3.125 10 3.125Z" fill="#1C1C1C"/>
<path d="M10 14.375H10.625C10.9702 14.375 11.25 14.0952 11.25 13.75C11.25 13.4048 10.9702 13.125 10.625 13.125V9.375C10.625 9.02982 10.3452 8.75 10 8.75H9.375C9.02982 8.75 8.75 9.02982 8.75 9.375C8.75 9.72018 9.02982 10 9.375 10V13.75C9.375 14.0952 9.65482 14.375 10 14.375Z" fill="#1C1C1C"/>
<path d="M10.7812 6.5625C10.7812 7.08027 10.3615 7.5 9.84375 7.5C9.32602 7.5 8.90625 7.08027 8.90625 6.5625C8.90625 6.04473 9.32602 5.625 9.84375 5.625C10.3615 5.625 10.7812 6.04473 10.7812 6.5625Z" fill="#1C1C1C"/>
</svg>
