<svg width="24" height="24" viewBox="0 0 24 24" fill="none" xmlns="http://www.w3.org/2000/svg">
<path d="M4.5 20.25C4.49876 19.9543 4.55612 19.6611 4.66878 19.3876C4.78139 19.114 4.9471 18.8654 5.15625 18.6562C5.36545 18.4471 5.61397 18.2814 5.88753 18.1688C6.16104 18.0562 6.45419 17.9987 6.75 18H19.5V3H6.75C6.45419 2.99872 6.16104 3.05621 5.88753 3.16882C5.61397 3.28143 5.36545 3.44714 5.15625 3.65625C4.9471 3.86536 4.78139 4.11401 4.66878 4.38757C4.55612 4.66113 4.49876 4.95428 4.5 5.25V20.25Z" fill="black" fill-opacity="0.1"/>
<path fill-rule="evenodd" clip-rule="evenodd" d="M3.75001 5.25149C3.75001 5.25149 3.74782 4.65426 3.97524 4.10196C3.97524 4.10196 4.20298 3.54888 4.62592 3.12593C4.62592 3.12593 5.04886 2.70299 5.60194 2.47526C5.60194 2.47526 6.15502 2.24752 6.75 2.25002H19.5C19.9142 2.25002 20.25 2.58581 20.25 3.00002V18C20.25 18.4142 19.9142 18.75 19.5 18.75L6.74686 18.75C6.74686 18.75 6.44873 18.7488 6.17306 18.8623C6.17306 18.8623 5.89739 18.9758 5.68658 19.1866C5.68658 19.1866 5.47577 19.3974 5.36226 19.6731C5.36226 19.6731 5.25149 19.9421 5.25 20.2325V20.25C5.25 20.6642 4.91422 21 4.5 21C4.08702 21 3.75174 20.6661 3.75001 20.2532L3.75 20.25L3.75001 20.2288V5.25149ZM5.25 5.25002V17.6474C5.25 17.6474 5.41884 17.5506 5.60194 17.4753C5.60194 17.4753 6.15502 17.2475 6.75315 17.25L18.75 17.25V3.75002H6.75C6.75 3.75002 6.44873 3.74876 6.17306 3.86227C6.17306 3.86227 5.89739 3.97579 5.68658 4.18659C5.68658 4.18659 5.47577 4.3974 5.36226 4.67308C5.36226 4.67308 5.24875 4.94875 5.25 5.24688L5.25 5.25002Z" fill="#1C1C1C"/>
<path d="M4.5 21.75H18C18.4142 21.75 18.75 21.4142 18.75 21C18.75 20.5858 18.4142 20.25 18 20.25H5.25C5.25 19.8358 4.91421 19.5 4.5 19.5C4.08579 19.5 3.75 19.8358 3.75 20.25V21C3.75 21.4142 4.08579 21.75 4.5 21.75Z" fill="#1C1C1C"/>
</svg>
