<svg width="16" height="16" viewBox="0 0 16 16" fill="none" xmlns="http://www.w3.org/2000/svg">
<path d="M9.5 2V5.5H13L9.5 2Z" fill="#1C1C1C"/>
<path d="M12.5 5.70711V8C12.5 8.27614 12.7239 8.5 13 8.5C13.2761 8.5 13.5 8.27614 13.5 8V5.5C13.5 5.36739 13.4473 5.24021 13.3536 5.14645L9.85355 1.64645C9.75979 1.55268 9.63261 1.5 9.5 1.5L3.5 1.5C3.08579 1.5 2.79289 1.79289 2.79289 1.79289C2.5 2.08579 2.5 2.5 2.5 2.5V8C2.5 8.27614 2.72386 8.5 3 8.5C3.27614 8.5 3.5 8.27614 3.5 8V2.5H9.29289L12.5 5.70711Z" fill="#1C1C1C"/>
<path d="M9.5 6H13C13.2761 6 13.5 5.77614 13.5 5.5C13.5 5.22386 13.2761 5 13 5H10V2C10 1.72386 9.77614 1.5 9.5 1.5C9.22386 1.5 9 1.72386 9 2V5.5C9 5.77614 9.22386 6 9.5 6Z" fill="#1C1C1C"/>
<path fill-rule="evenodd" clip-rule="evenodd" d="M6 13.5V10.5C6 10.2239 6.22386 10 6.5 10H7.5C7.5 10 8.12132 10 8.56066 10.4393C8.56066 10.4393 9 10.8787 9 11.5C9 11.5 9 12.1213 8.56066 12.5607C8.56066 12.5607 8.12132 13 7.5 13H7V13.5C7 13.7761 6.77614 14 6.5 14C6.22386 14 6 13.7761 6 13.5ZM7.5 12H7V11H7.5C7.5 11 7.70711 11 7.85355 11.1464C7.85355 11.1464 8 11.2929 8 11.5C8 11.5 8 11.7071 7.85355 11.8536C7.85355 11.8536 7.70711 12 7.5 12Z" fill="#1C1C1C"/>
<path d="M3.14645 12.8536C3 12.7071 3 12.5 3 12.5C3 12.2239 2.77614 12 2.5 12C2.22386 12 2 12.2239 2 12.5C2 13.1213 2.43934 13.5607 2.43934 13.5607C2.87868 14 3.5 14 3.5 14C4.12132 14 4.56066 13.5607 4.56066 13.5607C5 13.1213 5 12.5 5 12.5V10.5C5 10.2239 4.77614 10 4.5 10C4.22386 10 4 10.2239 4 10.5V12.5C4 12.7071 3.85355 12.8536 3.85355 12.8536C3.70711 13 3.5 13 3.5 13C3.29289 13 3.14645 12.8536 3.14645 12.8536Z" fill="#1C1C1C"/>
<path d="M11.3759 11C11.6273 10.9996 11.8303 11.1477 11.8303 11.1477C11.9159 11.2101 12.0191 11.2438 12.125 11.2438C12.1336 11.2438 12.1422 11.2435 12.1508 11.2431C12.3013 11.2353 12.4402 11.1601 12.5289 11.0384C12.5914 10.9529 12.625 10.8497 12.625 10.7438L12.625 10.7388C12.6247 10.7146 12.6227 10.6904 12.619 10.6665C12.5985 10.5355 12.5268 10.418 12.4197 10.3398C11.9524 9.99897 11.3741 10 11.3741 10C10.5832 10 10.0329 10.6005 10.0329 10.6005C9.5 11.182 9.5 12 9.5 12C9.5 12.818 10.0329 13.3995 10.0329 13.3995C10.5832 14 11.375 14 11.375 14C11.8545 13.9935 12.2657 13.7605 12.2657 13.7605C12.677 13.5274 12.9254 13.1252 12.9254 13.1252C12.9742 13.0463 13 12.9553 13 12.8625V12.125C13 11.8489 12.7761 11.625 12.5 11.625H11.75C11.4739 11.625 11.25 11.8489 11.25 12.125C11.25 12.4011 11.4739 12.625 11.75 12.625H12V12.7028C11.9047 12.8157 11.7727 12.8905 11.7727 12.8905C11.5845 12.9971 11.375 13 11.375 13C11.0232 13 10.7702 12.7239 10.7702 12.7239C10.5 12.4291 10.5 12 10.5 12C10.5 11.5709 10.7702 11.2761 10.7702 11.2761C11.0232 11 11.3759 11 11.3759 11Z" fill="#1C1C1C"/>
</svg>
