<svg width="24" height="24" viewBox="0 0 24 24" fill="none" xmlns="http://www.w3.org/2000/svg">
<path d="M3.75 6.75H20.25C20.6642 6.75 21 7.08577 21 7.5V19.5C21 19.9142 20.6642 20.25 20.25 20.25H3.75C3.33582 20.25 3 19.9142 3 19.5V7.5C3 7.08577 3.33582 6.75 3.75 6.75Z" fill="black" fill-opacity="0.1"/>
<path d="M11.25 10.875V16.125C11.25 16.5392 11.5858 16.875 12 16.875C12.4142 16.875 12.75 16.5392 12.75 16.125V10.875C12.75 10.4608 12.4142 10.125 12 10.125C11.5858 10.125 11.25 10.4608 11.25 10.875Z" fill="#1C1C1C"/>
<path d="M14.625 12.75H9.375C8.96079 12.75 8.625 13.0858 8.625 13.5C8.625 13.9142 8.96079 14.25 9.375 14.25H14.625C15.0392 14.25 15.375 13.9142 15.375 13.5C15.375 13.0858 15.0392 12.75 14.625 12.75Z" fill="#1C1C1C"/>
<path fill-rule="evenodd" clip-rule="evenodd" d="M2.25 7.5C2.25 7.5 2.25 6.87868 2.68934 6.43934C2.68934 6.43934 3.12868 6 3.75 6H20.25C20.25 6 20.8713 6 21.3107 6.43934C21.3107 6.43934 21.75 6.87868 21.75 7.5V19.5C21.75 19.5 21.75 20.1213 21.3107 20.5607C21.3107 20.5607 20.8713 21 20.25 21H3.75C3.75 21 3.12868 21 2.68934 20.5607C2.68934 20.5607 2.25 20.1213 2.25 19.5V7.5ZM3.75 7.5V19.5H20.25V7.5H3.75Z" fill="#1C1C1C"/>
<path d="M8.15901 3.65901C7.5 4.31802 7.5 5.25 7.5 5.25V6.75C7.5 7.16421 7.83579 7.5 8.25 7.5C8.66421 7.5 9 7.16421 9 6.75V5.25C9 4.93934 9.21967 4.71967 9.21967 4.71967C9.43934 4.5 9.75 4.5 9.75 4.5H14.25C14.5607 4.5 14.7803 4.71967 14.7803 4.71967C15 4.93934 15 5.25 15 5.25V6.75C15 7.16421 15.3358 7.5 15.75 7.5C16.1642 7.5 16.5 7.16421 16.5 6.75V5.25C16.5 4.31802 15.841 3.65901 15.841 3.65901C15.182 3 14.25 3 14.25 3H9.75C8.81802 3 8.15901 3.65901 8.15901 3.65901Z" fill="#1C1C1C"/>
</svg>
