<svg width="32" height="33" viewBox="0 0 32 33" fill="none" xmlns="http://www.w3.org/2000/svg">
<path d="M27 15.6055H5C4.44772 15.6055 4 16.0532 4 16.6055C4 17.1578 4.44772 17.6055 5 17.6055H27C27.5523 17.6055 28 17.1578 28 16.6055C28 16.0532 27.5523 15.6055 27 15.6055Z" fill="#1C1C1C"/>
<path d="M14.7067 8.31295L14.7071 8.31258C14.8946 8.12504 15 7.87069 15 7.60547C15 7.34025 14.8946 7.0859 14.7071 6.89836L14.7065 6.89779L14.6985 6.88983L14.6979 6.88927C14.5112 6.7073 14.2607 6.60547 14 6.60547C13.7348 6.60547 13.4804 6.71083 13.2929 6.89836L13.2925 6.89874L4.29289 15.8984C4.10536 16.0859 4 16.3403 4 16.6055C4 16.8707 4.10536 17.125 4.29289 17.3126L13.2929 26.3126C13.4804 26.5001 13.7348 26.6055 14 26.6055C14.2652 26.6055 14.5196 26.5001 14.7071 26.3126C14.8946 26.125 15 25.8707 15 25.6055C15 25.3403 14.8946 25.0859 14.7071 24.8984L6.41421 16.6055L14.7067 8.31295Z" fill="#1C1C1C"/>
</svg>
