<svg width="20" height="21" viewBox="0 0 20 21" fill="none" xmlns="http://www.w3.org/2000/svg">
<path d="M4.39062 8.73055C4.38956 7.98962 4.53513 7.25574 4.81894 6.57131C5.10275 5.88684 5.51917 5.26531 6.04407 4.74247C6.56912 4.21963 7.19244 3.80581 7.87802 3.52486C8.56375 3.24394 9.29816 3.10143 10.0391 3.10555C13.1328 3.12901 15.6093 5.69931 15.6093 8.80085V9.35555C15.6093 12.1524 16.1953 13.7774 16.7109 14.668C16.7657 14.7629 16.7946 14.8705 16.7946 14.98C16.7948 15.0895 16.7661 15.1971 16.7115 15.2921C16.6569 15.387 16.5783 15.466 16.4837 15.521C16.3889 15.576 16.2813 15.6052 16.1719 15.6055H3.82819C3.71863 15.6052 3.61105 15.576 3.51645 15.521C3.42169 15.466 3.34311 15.387 3.28848 15.2921C3.23386 15.1971 3.20517 15.0895 3.20532 14.98C3.20547 14.8705 3.23431 14.7629 3.28909 14.668C3.80469 13.7774 4.39062 12.1524 4.39062 9.35555V8.73055Z" fill="black" fill-opacity="0.1"/>
<path fill-rule="evenodd" clip-rule="evenodd" d="M3.76562 9.35553V8.73053C3.76562 8.73053 3.76387 7.48411 4.24158 6.33191C4.24158 6.33191 4.71929 5.17972 5.6031 4.29957C5.6031 4.29957 6.48691 3.41943 7.64108 2.94652C7.64108 2.94652 8.79525 2.4736 10.0425 2.48054C10.0425 2.48054 11.3108 2.49015 12.4657 2.99681C12.4657 2.99681 13.5768 3.48428 14.4322 4.36292C14.4322 4.36292 15.2842 5.23813 15.7515 6.36668C15.7515 6.36668 16.2344 7.53282 16.2344 8.80085V9.35553C16.2344 9.35553 16.2344 12.5975 17.2518 14.3549C17.2518 14.3549 17.4194 14.6451 17.4197 14.9794C17.4197 14.9794 17.42 15.3138 17.2533 15.6036C17.2533 15.6036 17.0866 15.8935 16.7975 16.0614C16.7975 16.0614 16.5084 16.2294 16.1741 16.2305L3.82812 16.2305C3.82812 16.2305 3.49157 16.2294 3.20246 16.0614C3.20246 16.0614 2.91335 15.8935 2.74669 15.6036C2.74669 15.6036 2.58003 15.3138 2.58032 14.9794C2.58032 14.9794 2.58062 14.6451 2.7478 14.3555C2.7478 14.3555 3.76562 12.5975 3.76562 9.35553ZM5.01562 9.35553C5.01562 9.35553 5.01562 12.9332 3.83032 14.9805L16.1697 14.9805C16.1697 14.9805 14.9844 12.9326 14.9844 9.35553V8.80085C14.9844 8.80085 14.9844 6.72206 13.5365 5.23487C13.5365 5.23487 12.0871 3.74607 10.0356 3.73053C10.0356 3.73053 9.03807 3.72497 8.11502 4.10319C8.11502 4.10319 7.19197 4.4814 6.48514 5.18529C6.48514 5.18529 5.77831 5.88919 5.39627 6.81066C5.39627 6.81066 5.01422 7.73213 5.01562 8.73053V9.35553Z" fill="#1C1C1C"/>
<path d="M13.125 16.2305V15.6055C13.125 15.2603 12.8452 14.9805 12.5 14.9805C12.1548 14.9805 11.875 15.2603 11.875 15.6055V16.2305C11.875 17.0071 11.3258 17.5563 11.3258 17.5563C10.7766 18.1055 10 18.1055 10 18.1055C9.22335 18.1055 8.67417 17.5563 8.67417 17.5563C8.125 17.0071 8.125 16.2305 8.125 16.2305V15.6055C8.125 15.2603 7.84518 14.9805 7.5 14.9805C7.15482 14.9805 6.875 15.2603 6.875 15.6055L6.875 16.2305C6.875 17.5249 7.79029 18.4402 7.79029 18.4402C8.70558 19.3555 10 19.3555 10 19.3555C11.2944 19.3555 12.2097 18.4402 12.2097 18.4402C13.125 17.5249 13.125 16.2305 13.125 16.2305Z" fill="#1C1C1C"/>
</svg>
