<svg width="20" height="21" viewBox="0 0 20 21" fill="none" xmlns="http://www.w3.org/2000/svg">
<path d="M16.25 3.10547H3.75C3.41848 3.10547 3.10054 3.23716 2.86612 3.47159C2.6317 3.70601 2.5 4.02395 2.5 4.35547V16.8555C2.5 17.187 2.6317 17.5049 2.86612 17.7394C3.10054 17.9738 3.41848 18.1055 3.75 18.1055H16.25C16.5815 18.1055 16.8995 17.9738 17.1339 17.7394C17.3683 17.5049 17.5 17.187 17.5 16.8555V4.35547C17.5 4.02395 17.3683 3.70601 17.1339 3.47159C16.8995 3.23716 16.5815 3.10547 16.25 3.10547ZM13.8672 9.18359L9.28906 13.5586C9.1707 13.6699 9.01405 13.7315 8.85156 13.7305C8.69146 13.7311 8.53739 13.6694 8.42188 13.5586L6.13281 11.3711C6.06932 11.3157 6.01769 11.248 5.98101 11.1722C5.94434 11.0963 5.92338 11.0138 5.9194 10.9297C5.91542 10.8455 5.92849 10.7614 5.95784 10.6824C5.98719 10.6035 6.03221 10.5312 6.09018 10.4701C6.14816 10.4089 6.2179 10.3602 6.29521 10.3267C6.37253 10.2932 6.45581 10.2756 6.54007 10.2751C6.62432 10.2747 6.70781 10.2912 6.78551 10.3238C6.8632 10.3564 6.9335 10.4044 6.99219 10.4648L8.85156 12.2383L13.0078 8.27734C13.1293 8.17132 13.2871 8.11637 13.4482 8.124C13.6093 8.13162 13.7612 8.20122 13.8722 8.31824C13.9832 8.43526 14.0446 8.59066 14.0437 8.75193C14.0428 8.9132 13.9795 9.06787 13.8672 9.18359Z" fill="#1C1C1C"/>
</svg>
