<svg width="20" height="21" viewBox="0 0 20 21" fill="none" xmlns="http://www.w3.org/2000/svg">
<path fill-rule="evenodd" clip-rule="evenodd" d="M4.21246 3.31005C4.20579 3.30271 4.19895 3.29554 4.19194 3.28853C4.082 3.17859 3.93503 3.11357 3.77973 3.10618L3.77786 3.10609C3.76858 3.10568 3.75929 3.10547 3.75 3.10547C3.59452 3.10547 3.44462 3.16342 3.32958 3.26801C3.32224 3.27467 3.31507 3.28152 3.30806 3.28853C3.19812 3.39847 3.1331 3.54544 3.12571 3.70074L3.12562 3.70261C3.12521 3.71189 3.125 3.72118 3.125 3.73047C3.125 3.88595 3.18295 4.03584 3.28754 4.15089L4.80213 5.81694C4.0481 6.30082 2.82041 7.20762 1.8241 8.50865C1.8241 8.50865 1.04462 9.52652 0.678625 10.3521C0.607041 10.5136 0.607129 10.6979 0.678868 10.8593C0.678868 10.8593 0.853388 11.2519 1.20939 11.8174C1.20939 11.8174 1.91081 12.9314 2.83931 13.8599C2.83931 13.8599 5.83487 16.8554 9.99491 16.8554C9.99491 16.8554 12.0634 16.8723 14.0658 16.007L15.7875 17.9009C15.906 18.0312 16.0739 18.1055 16.25 18.1055L16.2526 18.1055C16.4072 18.1048 16.556 18.0469 16.6704 17.9429C16.8007 17.8245 16.875 17.6566 16.875 17.4805L16.875 17.4779C16.8743 17.3233 16.8164 17.1744 16.7125 17.06L8.37754 7.89164C8.37653 7.89043 8.37552 7.88923 8.37449 7.88802C8.37007 7.88282 8.36555 7.87769 8.36095 7.87262C8.35525 7.86635 8.34943 7.8602 8.3435 7.85419L4.21246 3.31005ZM5.64972 6.74929C3.99789 7.72595 2.81653 9.26864 2.81653 9.26864C2.25195 10.0059 1.94459 10.6022 1.94459 10.6022C2.07162 10.8407 2.26718 11.1513 2.26718 11.1513C2.89388 12.1467 3.72319 12.976 3.72319 12.976C6.35263 15.6054 10.0051 15.6055 10.0051 15.6055C11.257 15.6157 12.4283 15.2803 13.1614 15.0122L12.0133 13.7492C11.5621 14.0269 10.8454 14.3587 9.99994 14.3555C9.99994 14.3555 8.838 14.3554 7.8797 13.6983C7.8797 13.6983 6.92139 13.0412 6.5025 11.9574C6.5025 11.9574 6.08362 10.8736 6.35092 9.74281C6.35092 9.74281 6.52761 8.9954 7.05573 8.2959L5.64972 6.74929ZM7.5674 10.0304C7.64012 9.72274 7.77863 9.45387 7.91709 9.2434L11.1611 12.8118C10.5728 13.1077 10.0001 13.1055 10.0001 13.1055C9.22545 13.1054 8.58658 12.6674 8.58658 12.6674C7.94771 12.2293 7.66845 11.5068 7.66845 11.5068C7.38919 10.7842 7.5674 10.0304 7.5674 10.0304Z" fill="#1C1C1C"/>
<path d="M8.27961 4.49688C8.11613 4.52424 7.97021 4.61543 7.87396 4.75039C7.7984 4.85632 7.7578 4.98319 7.7578 5.1133L7.75782 5.11847C7.75809 5.15132 7.76095 5.18409 7.76637 5.21649C7.79374 5.37997 7.88493 5.52589 8.01988 5.62214C8.12581 5.69769 8.25268 5.7383 8.3828 5.7383L8.38797 5.73828C8.42082 5.73801 8.45359 5.73515 8.48598 5.72972C9.23714 5.60398 9.99875 5.60549 9.99875 5.60549C13.6474 5.60549 16.2768 8.23493 16.2768 8.23493C17.1061 9.06425 17.7328 10.0596 17.7328 10.0596C17.9273 10.3685 18.054 10.6062 18.054 10.6062C17.895 10.9061 17.639 11.2976 17.639 11.2976C16.8837 12.4527 15.8812 13.3497 15.8812 13.3497L15.8806 13.3502C15.7481 13.4688 15.6719 13.6386 15.6719 13.8164C15.6719 13.8239 15.672 13.8314 15.6723 13.8388L15.6724 13.8426L15.6726 13.8463C15.6794 13.9896 15.7354 14.1262 15.831 14.2331C15.9496 14.3657 16.119 14.4414 16.2969 14.4414C16.3068 14.4414 16.3168 14.4412 16.3267 14.4407C16.47 14.4339 16.6066 14.3779 16.7135 14.2823C17.8392 13.2753 18.6852 11.9817 18.6852 11.9817C19.1132 11.3272 19.3211 10.8593 19.3211 10.8593C19.3929 10.6977 19.3929 10.5133 19.3211 10.3517C19.1466 9.95897 18.7906 9.39357 18.7906 9.39357C18.0892 8.27954 17.1607 7.35105 17.1607 7.35105C14.1651 4.35549 10.0012 4.35549 10.0012 4.35549C9.13463 4.35378 8.27961 4.49688 8.27961 4.49688Z" fill="#1C1C1C"/>
<path d="M12.4871 10.3665C12.4871 10.3665 12.4098 9.5369 11.849 8.92059C11.849 8.92059 11.2882 8.30429 10.4696 8.14917C10.3067 8.11831 10.1628 8.02402 10.0694 7.88704C9.99961 7.78455 9.96184 7.6636 9.96095 7.53959L9.96094 7.5351C9.96094 7.49606 9.9646 7.4571 9.97186 7.41874C10.0238 7.14468 10.2511 6.9382 10.5288 6.91271C10.5478 6.91097 10.5669 6.9101 10.5859 6.9101C10.625 6.9101 10.6639 6.91375 10.7023 6.92102C10.7023 6.92102 11.9316 7.15394 12.7736 8.07936C12.7736 8.07936 13.6155 9.00501 13.7317 10.2505C13.7334 10.2692 13.7343 10.2879 13.7344 10.3067L13.7344 10.3085C13.7344 10.6312 13.4887 10.9009 13.1674 10.9308C13.1487 10.9326 13.13 10.9335 13.1112 10.9335L13.1094 10.9335C12.7867 10.9335 12.517 10.6878 12.4871 10.3665Z" fill="#1C1C1C"/>
</svg>
