<svg width="20" height="21" viewBox="0 0 20 21" fill="none" xmlns="http://www.w3.org/2000/svg">
<path fill-rule="evenodd" clip-rule="evenodd" d="M4.21246 2.71337C4.20579 2.70603 4.19895 2.69886 4.19194 2.69185C4.082 2.58191 3.93503 2.51689 3.77973 2.5095L3.77786 2.50941C3.76858 2.509 3.75929 2.50879 3.75 2.50879C3.59452 2.50879 3.44462 2.56674 3.32958 2.67133C3.32224 2.678 3.31507 2.68484 3.30806 2.69185C3.19812 2.80179 3.1331 2.94876 3.12571 3.10406L3.12562 3.10593C3.12521 3.11521 3.125 3.1245 3.125 3.13379C3.125 3.28927 3.18295 3.43916 3.28754 3.55421L4.80213 5.22027C4.0481 5.70414 2.82041 6.61094 1.8241 7.91197C1.8241 7.91197 1.04462 8.92984 0.678625 9.75547C0.607041 9.91695 0.607129 10.1012 0.678868 10.2626C0.678868 10.2626 0.853388 10.6553 1.20939 11.2207C1.20939 11.2207 1.91081 12.3347 2.83931 13.2632C2.83931 13.2632 5.83487 16.2588 9.99491 16.2587C9.99491 16.2587 12.0634 16.2756 14.0658 15.4103L15.7875 17.3042C15.906 17.4345 16.0739 17.5088 16.25 17.5088L16.2526 17.5088C16.4072 17.5081 16.556 17.4502 16.6704 17.3463C16.8007 17.2278 16.875 17.0599 16.875 16.8838L16.875 16.8812C16.8743 16.7266 16.8164 16.5777 16.7125 16.4634L8.37754 7.29496C8.37653 7.29375 8.37552 7.29255 8.37449 7.29135C8.37007 7.28614 8.36555 7.28101 8.36095 7.27594C8.35525 7.26967 8.34943 7.26352 8.3435 7.25751L4.21246 2.71337ZM5.64972 6.15261C3.99789 7.12927 2.81653 8.67196 2.81653 8.67196C2.25195 9.40921 1.94459 10.0055 1.94459 10.0055C2.07162 10.2441 2.26718 10.5547 2.26718 10.5547C2.89388 11.55 3.72319 12.3793 3.72319 12.3793C6.35263 15.0088 10.0051 15.0088 10.0051 15.0088C11.257 15.019 12.4283 14.6836 13.1614 14.4155L12.0133 13.1525C11.5621 13.4302 10.8454 13.762 9.99994 13.7588C9.99994 13.7588 8.838 13.7587 7.8797 13.1016C7.8797 13.1016 6.92139 12.4445 6.5025 11.3607C6.5025 11.3607 6.08362 10.2769 6.35092 9.14613C6.35092 9.14613 6.52761 8.39872 7.05573 7.69922L5.64972 6.15261ZM7.5674 9.43369C7.64012 9.12606 7.77863 8.85719 7.91709 8.64672L11.1611 12.2151C10.5728 12.511 10.0001 12.5088 10.0001 12.5088C9.22545 12.5087 8.58658 12.0707 8.58658 12.0707C7.94771 11.6326 7.66845 10.9101 7.66845 10.9101C7.38919 10.1875 7.5674 9.43369 7.5674 9.43369Z" fill="#1C1C1C"/>
<path d="M8.27961 3.9002C8.11613 3.92756 7.97021 4.01875 7.87396 4.15371C7.7984 4.25964 7.7578 4.38651 7.7578 4.51662L7.75782 4.52179C7.75809 4.55464 7.76095 4.58741 7.76637 4.61981C7.79374 4.78329 7.88493 4.92921 8.01988 5.02546C8.12581 5.10101 8.25268 5.14162 8.3828 5.14162L8.38797 5.1416C8.42082 5.14133 8.45359 5.13847 8.48598 5.13304C9.23714 5.0073 9.99875 5.00881 9.99875 5.00881C13.6474 5.00881 16.2768 7.63825 16.2768 7.63825C17.1061 8.46757 17.7328 9.46291 17.7328 9.46291C17.9273 9.77184 18.054 10.0095 18.054 10.0095C17.895 10.3094 17.639 10.7009 17.639 10.7009C16.8837 11.8561 15.8812 12.753 15.8812 12.753L15.8806 12.7535C15.7481 12.8721 15.6719 13.0419 15.6719 13.2197C15.6719 13.2272 15.672 13.2347 15.6723 13.2422L15.6724 13.2459L15.6726 13.2496C15.6794 13.3929 15.7354 13.5295 15.831 13.6364C15.9496 13.769 16.119 13.8447 16.2969 13.8447C16.3068 13.8447 16.3168 13.8445 16.3267 13.844C16.47 13.8372 16.6066 13.7812 16.7135 13.6856C17.8392 12.6786 18.6852 11.385 18.6852 11.385C19.1132 10.7306 19.3211 10.2626 19.3211 10.2626C19.3929 10.101 19.3929 9.91658 19.3211 9.75497C19.1466 9.36229 18.7906 8.7969 18.7906 8.7969C18.0892 7.68286 17.1607 6.75437 17.1607 6.75437C14.1651 3.75881 10.0012 3.75881 10.0012 3.75881C9.13463 3.7571 8.27961 3.9002 8.27961 3.9002Z" fill="#1C1C1C"/>
<path d="M12.4871 9.76985C12.4871 9.76985 12.4098 8.94022 11.849 8.32391C11.849 8.32391 11.2882 7.70761 10.4696 7.55249C10.3067 7.52163 10.1628 7.42734 10.0694 7.29036C9.99961 7.18787 9.96184 7.06692 9.96095 6.94291L9.96094 6.93842C9.96094 6.89938 9.9646 6.86042 9.97186 6.82206C10.0238 6.548 10.2511 6.34152 10.5288 6.31603C10.5478 6.31429 10.5669 6.31342 10.5859 6.31342C10.625 6.31342 10.6639 6.31707 10.7023 6.32434C10.7023 6.32434 11.9316 6.55726 12.7736 7.48268C12.7736 7.48268 13.6155 8.40833 13.7317 9.65386C13.7334 9.67252 13.7343 9.69126 13.7344 9.71001L13.7344 9.71185C13.7344 10.0346 13.4887 10.3042 13.1674 10.3342C13.1487 10.3359 13.13 10.3368 13.1112 10.3369L13.1094 10.3369C12.7867 10.3369 12.517 10.0912 12.4871 9.76985Z" fill="#1C1C1C"/>
</svg>
