<svg width="20" height="21" viewBox="0 0 20 21" fill="none" xmlns="http://www.w3.org/2000/svg">
<path d="M11.875 17.4805V12.4805H8.125V17.4805H3.125V9.62891C3.12454 9.54208 3.1424 9.45618 3.17741 9.37675C3.21243 9.29733 3.26378 9.22615 3.32817 9.16794L9.57817 3.48824C9.69208 3.38341 9.84123 3.3252 9.99611 3.3252C10.151 3.3252 10.3001 3.38341 10.414 3.48824L16.6719 9.16794C16.7348 9.22737 16.7851 9.29871 16.8201 9.3779C16.8549 9.45702 16.8736 9.54239 16.875 9.62891V17.4805H11.875Z" fill="black" fill-opacity="0.1"/>
<path d="M2.50002 9.62889V17.4805C2.50002 17.8256 2.77984 18.1055 3.12502 18.1055C3.4702 18.1055 3.75002 17.8256 3.75002 17.4805V9.62909L9.99612 3.95294L16.2515 9.63045C16.2483 9.62756 16.2477 9.62801 16.2477 9.62801C16.2474 9.62829 16.2481 9.62993 16.2481 9.62993C16.25 9.63427 16.2501 9.639 16.2501 9.639L16.25 17.4805C16.25 17.8256 16.5298 18.1055 16.875 18.1055C17.2202 18.1055 17.5 17.8256 17.5 17.4805L17.4999 9.61878C17.4958 9.36141 17.392 9.12586 17.392 9.12586C17.2882 8.89031 17.0919 8.70515 17.0919 8.70515L10.8373 3.0284C10.4807 2.7002 9.99611 2.7002 9.99611 2.7002C9.51147 2.7002 9.15781 3.02572 9.15781 3.02572L2.90885 8.70447C2.71235 8.88224 2.60549 9.12472 2.60549 9.12472C2.49863 9.3672 2.50002 9.62889 2.50002 9.62889Z" fill="#1C1C1C"/>
<path d="M1.25 18.1055H18.75C19.0952 18.1055 19.375 17.8256 19.375 17.4805C19.375 17.1353 19.0952 16.8555 18.75 16.8555H1.25C0.904822 16.8555 0.625 17.1353 0.625 17.4805C0.625 17.8256 0.904822 18.1055 1.25 18.1055Z" fill="#1C1C1C"/>
<path d="M7.5 13.1055V17.4805C7.5 17.8256 7.77982 18.1055 8.125 18.1055C8.47018 18.1055 8.75 17.8256 8.75 17.4805V13.1055H11.25V17.4805C11.25 17.8256 11.5298 18.1055 11.875 18.1055C12.2202 18.1055 12.5 17.8256 12.5 17.4805V13.1055C12.5 12.5877 12.1339 12.2216 12.1339 12.2216C11.7678 11.8555 11.25 11.8555 11.25 11.8555H8.75C8.23223 11.8555 7.86612 12.2216 7.86612 12.2216C7.5 12.5877 7.5 13.1055 7.5 13.1055Z" fill="#1C1C1C"/>
</svg>
