<svg width="80" height="80" viewBox="0 0 80 80" fill="none" xmlns="http://www.w3.org/2000/svg">
<path d="M57.9091 54.9739C55.2852 50.4538 51.0851 47.0612 46.1142 45.4466C48.4969 44.0297 50.3485 41.8698 51.3845 39.2985C52.4206 36.7273 52.5838 33.887 51.8491 31.214C51.1144 28.541 49.5224 26.1832 47.3177 24.5027C45.113 22.8223 42.4176 21.9121 39.6454 21.9121C36.8733 21.9121 34.1779 22.8223 31.9732 24.5027C29.7685 26.1832 28.1765 28.541 27.4418 31.214C26.7071 33.887 26.8703 36.7273 27.9064 39.2985C28.9424 41.8698 30.794 44.0297 33.1767 45.4466C28.2058 47.0612 24.0057 50.4538 21.3818 54.9739C21.2529 55.1858 21.1848 55.4291 21.1848 55.6771C21.1848 55.925 21.2529 56.1683 21.3818 56.3802C21.502 56.5957 21.6781 56.7747 21.8916 56.8985C22.105 57.0222 22.3479 57.0861 22.5947 57.0833H56.6962C56.943 57.0861 57.1859 57.0222 57.3993 56.8985C57.6128 56.7747 57.7889 56.5957 57.9091 56.3802C58.0379 56.1683 58.1061 55.925 58.1061 55.6771C58.1061 55.4291 58.0379 55.1858 57.9091 54.9739Z" fill="black"/>
<rect x="0.75" y="1.3125" width="77.791" height="77.791" rx="38.8955" stroke="black" stroke-opacity="0.5" stroke-width="1.5"/>
</svg>
