<svg width="80" height="80" viewBox="0 0 80 80" fill="none" xmlns="http://www.w3.org/2000/svg">
<path d="M53.708 23.333H49.4893V21.9268C49.4893 21.5538 49.3411 21.1961 49.0774 20.9324C48.8137 20.6687 48.456 20.5205 48.083 20.5205C47.71 20.5205 47.3524 20.6687 47.0886 20.9324C46.8249 21.1961 46.6768 21.5538 46.6768 21.9268V23.333H32.6143V21.9268C32.6143 21.5538 32.4661 21.1961 32.2024 20.9324C31.9387 20.6687 31.581 20.5205 31.208 20.5205C30.835 20.5205 30.4774 20.6687 30.2136 20.9324C29.9499 21.1961 29.8018 21.5538 29.8018 21.9268V23.333H25.583C24.8371 23.333 24.1217 23.6293 23.5943 24.1568C23.0668 24.6842 22.7705 25.3996 22.7705 26.1455V54.2705C22.7705 55.0164 23.0668 55.7318 23.5943 56.2592C24.1217 56.7867 24.8371 57.083 25.583 57.083H53.708C54.4539 57.083 55.1693 56.7867 55.6967 56.2592C56.2242 55.7318 56.5205 55.0164 56.5205 54.2705V26.1455C56.5205 25.3996 56.2242 24.6842 55.6967 24.1568C55.1693 23.6293 54.4539 23.333 53.708 23.333ZM44.5674 45.833H41.0518V49.3486C41.0518 49.7216 40.9036 50.0793 40.6399 50.343C40.3762 50.6067 40.0185 50.7549 39.6455 50.7549C39.2725 50.7549 38.9149 50.6067 38.6511 50.343C38.3874 50.0793 38.2393 49.7216 38.2393 49.3486V45.833H34.7236C34.3507 45.833 33.993 45.6849 33.7293 45.4211C33.4655 45.1574 33.3174 44.7997 33.3174 44.4268C33.3174 44.0538 33.4655 43.6961 33.7293 43.4324C33.993 43.1687 34.3507 43.0205 34.7236 43.0205H38.2393V39.5049C38.2393 39.1319 38.3874 38.7742 38.6511 38.5105C38.9149 38.2468 39.2725 38.0986 39.6455 38.0986C40.0185 38.0986 40.3762 38.2468 40.6399 38.5105C40.9036 38.7742 41.0518 39.1319 41.0518 39.5049V43.0205H44.5674C44.9403 43.0205 45.298 43.1687 45.5618 43.4324C45.8255 43.6961 45.9736 44.0538 45.9736 44.4268C45.9736 44.7997 45.8255 45.1574 45.5618 45.4211C45.298 45.6849 44.9403 45.833 44.5674 45.833ZM53.708 31.7705H25.583V26.1455H29.8018V27.5518C29.8018 27.9247 29.9499 28.2824 30.2136 28.5461C30.4774 28.8098 30.835 28.958 31.208 28.958C31.581 28.958 31.9387 28.8098 32.2024 28.5461C32.4661 28.2824 32.6143 27.9247 32.6143 27.5518V26.1455H46.6768V27.5518C46.6768 27.9247 46.8249 28.2824 47.0886 28.5461C47.3524 28.8098 47.71 28.958 48.083 28.958C48.456 28.958 48.8137 28.8098 49.0774 28.5461C49.3411 28.2824 49.4893 27.9247 49.4893 27.5518V26.1455H53.708V31.7705Z" fill="black"/>
<rect x="0.75" y="1.3125" width="77.791" height="77.791" rx="38.8955" stroke="black" stroke-opacity="0.5" stroke-width="1.5"/>
</svg>
