<svg width="80" height="80" viewBox="0 0 80 80" fill="none" xmlns="http://www.w3.org/2000/svg">
<path d="M50.8955 21.9268H28.3955C27.6496 21.9268 26.9342 22.2231 26.4068 22.7505C25.8793 23.278 25.583 23.9933 25.583 24.7393V55.6768C25.583 56.4227 25.8793 57.1381 26.4068 57.6655C26.9342 58.1929 27.6496 58.4893 28.3955 58.4893H50.8955C51.6414 58.4893 52.3568 58.1929 52.8842 57.6655C53.4117 57.1381 53.708 56.4227 53.708 55.6768V24.7393C53.708 23.9933 53.4117 23.278 52.8842 22.7505C52.3568 22.2231 51.6414 21.9268 50.8955 21.9268ZM39.6455 51.458C39.2283 51.458 38.8205 51.3343 38.4736 51.1025C38.1267 50.8707 37.8564 50.5413 37.6967 50.1559C37.537 49.7704 37.4953 49.3463 37.5767 48.9371C37.6581 48.5279 37.859 48.1521 38.154 47.8571C38.449 47.5621 38.8248 47.3612 39.234 47.2798C39.6432 47.1984 40.0673 47.2402 40.4527 47.3998C40.8382 47.5595 41.1676 47.8298 41.3994 48.1767C41.6312 48.5236 41.7549 48.9314 41.7549 49.3486C41.7549 49.9081 41.5326 50.4446 41.1371 50.8402C40.7415 51.2358 40.2049 51.458 39.6455 51.458ZM45.2705 37.3955H34.0205C33.6475 37.3955 33.2899 37.2473 33.0261 36.9836C32.7624 36.7199 32.6143 36.3622 32.6143 35.9893C32.6143 35.6163 32.7624 35.2586 33.0261 34.9949C33.2899 34.7312 33.6475 34.583 34.0205 34.583H45.2705C45.6435 34.583 46.0012 34.7312 46.2649 34.9949C46.5286 35.2586 46.6768 35.6163 46.6768 35.9893C46.6768 36.3622 46.5286 36.7199 46.2649 36.9836C46.0012 37.2473 45.6435 37.3955 45.2705 37.3955ZM45.2705 31.7705H34.0205C33.6475 31.7705 33.2899 31.6223 33.0261 31.3586C32.7624 31.0949 32.6143 30.7372 32.6143 30.3643C32.6143 29.9913 32.7624 29.6336 33.0261 29.3699C33.2899 29.1062 33.6475 28.958 34.0205 28.958H45.2705C45.6435 28.958 46.0012 29.1062 46.2649 29.3699C46.5286 29.6336 46.6768 29.9913 46.6768 30.3643C46.6768 30.7372 46.5286 31.0949 46.2649 31.3586C46.0012 31.6223 45.6435 31.7705 45.2705 31.7705Z" fill="black"/>
<rect x="0.75" y="1.3125" width="77.791" height="77.791" rx="38.8955" stroke="black" stroke-opacity="0.5" stroke-width="1.5"/>
</svg>
