<svg width="80" height="80" viewBox="0 0 80 80" fill="none" xmlns="http://www.w3.org/2000/svg">
<path d="M30.2061 32.7725C29.9818 32.4992 29.8672 32.1524 29.8846 31.7993C29.9019 31.4463 30.0499 31.1123 30.2999 30.8624C30.5498 30.6124 30.8838 30.4644 31.2368 30.4471C31.5899 30.4297 31.9367 30.5443 32.21 30.7686L38.2393 36.8154V21.9268C38.2393 21.5538 38.3874 21.1961 38.6511 20.9324C38.9149 20.6687 39.2725 20.5205 39.6455 20.5205C40.0185 20.5205 40.3762 20.6687 40.6399 20.9324C40.9036 21.1961 41.0518 21.5538 41.0518 21.9268V36.8154L47.0811 30.7686C47.3543 30.5443 47.7012 30.4297 48.0542 30.4471C48.4072 30.4644 48.7412 30.6124 48.9911 30.8624C49.2411 31.1123 49.3891 31.4463 49.4065 31.7993C49.4238 32.1524 49.3092 32.4992 49.085 32.7725L40.6475 41.21C40.3787 41.4699 40.0194 41.6152 39.6455 41.6152C39.2716 41.6152 38.9123 41.4699 38.6436 41.21L30.2061 32.7725ZM59.333 41.6143V52.8643C59.333 53.6102 59.0367 54.3256 58.5092 54.853C57.9818 55.3804 57.2664 55.6768 56.5205 55.6768H22.7705C22.0246 55.6768 21.3092 55.3804 20.7818 54.853C20.2543 54.3256 19.958 53.6102 19.958 52.8643V41.6143C19.958 40.8683 20.2543 40.153 20.7818 39.6255C21.3092 39.0981 22.0246 38.8018 22.7705 38.8018H31.9814C32.0739 38.7988 32.1659 38.8162 32.2509 38.8526C32.336 38.889 32.412 38.9437 32.4736 39.0127L36.6572 43.1963C37.4511 43.9863 38.5255 44.4298 39.6455 44.4298C40.7655 44.4298 41.8399 43.9863 42.6338 43.1963L46.8174 39.0127C46.879 38.9437 46.955 38.889 47.0401 38.8526C47.1251 38.8162 47.2171 38.7988 47.3096 38.8018H56.5205C57.2664 38.8018 57.9818 39.0981 58.5092 39.6255C59.0367 40.153 59.333 40.8683 59.333 41.6143ZM52.3018 47.2393C52.3018 46.8221 52.178 46.4142 51.9463 46.0674C51.7145 45.7205 51.385 45.4501 50.9996 45.2905C50.6142 45.1308 50.19 45.089 49.7809 45.1704C49.3717 45.2518 48.9958 45.4527 48.7008 45.7477C48.4058 46.0427 48.2049 46.4186 48.1235 46.8277C48.0421 47.2369 48.0839 47.661 48.2436 48.0465C48.4032 48.4319 48.6736 48.7614 49.0205 48.9931C49.3674 49.2249 49.7752 49.3486 50.1924 49.3486C50.7518 49.3486 51.2883 49.1264 51.6839 48.7308C52.0795 48.3352 52.3018 47.7987 52.3018 47.2393Z" fill="black"/>
<rect x="0.75" y="1.3125" width="77.791" height="77.791" rx="38.8955" stroke="black" stroke-opacity="0.5" stroke-width="1.5"/>
</svg>
