<svg width="80" height="80" viewBox="0 0 80 80" fill="none" xmlns="http://www.w3.org/2000/svg">
<path d="M56.1689 45.4491L47.9248 41.9335C47.4994 41.7428 47.0325 41.6637 46.568 41.7037C46.1036 41.7437 45.657 41.9014 45.2705 42.162L40.8584 45.0975C38.1694 43.7915 35.9922 41.6267 34.6709 38.9452L37.5889 34.4803C37.8477 34.0934 38.0058 33.648 38.0487 33.1844C38.0917 32.7209 38.0182 32.254 37.835 31.826L34.3018 23.5819C34.0552 23.0252 33.6378 22.5616 33.1099 22.2581C32.5821 21.9547 31.9713 21.8273 31.3662 21.8944C28.9924 22.2054 26.8124 23.3678 25.2313 25.1654C23.6502 26.9631 22.7758 29.2738 22.7705 31.6678C22.7705 45.6249 34.126 56.9803 48.083 56.9803C50.477 56.9751 52.7877 56.1006 54.5854 54.5195C56.3831 52.9385 57.5455 50.7584 57.8564 48.3846C57.9235 47.7795 57.7961 47.1688 57.4927 46.6409C57.1893 46.1131 56.7256 45.6956 56.1689 45.4491Z" fill="#345EA7"/>
<rect x="0.75" y="1.20996" width="77.791" height="77.791" rx="38.8955" stroke="#3261A9" stroke-width="1.5"/>
</svg>
