<svg width="80" height="80" viewBox="0 0 80 80" fill="none" xmlns="http://www.w3.org/2000/svg">
<path d="M59.333 54.2705H57.9268V35.9893C57.9268 35.2433 57.6304 34.528 57.103 34.0005C56.5756 33.4731 55.8602 33.1768 55.1143 33.1768H43.8643V24.7393C43.8643 23.9933 43.5679 23.278 43.0405 22.7505C42.5131 22.2231 41.7977 21.9268 41.0518 21.9268H24.1768C23.4308 21.9268 22.7155 22.2231 22.188 22.7505C21.6606 23.278 21.3643 23.9933 21.3643 24.7393V54.2705H19.958C19.585 54.2705 19.2274 54.4187 18.9636 54.6824C18.6999 54.9461 18.5518 55.3038 18.5518 55.6768C18.5518 56.0497 18.6999 56.4074 18.9636 56.6711C19.2274 56.9348 19.585 57.083 19.958 57.083H59.333C59.706 57.083 60.0637 56.9348 60.3274 56.6711C60.5911 56.4074 60.7393 56.0497 60.7393 55.6768C60.7393 55.3038 60.5911 54.9461 60.3274 54.6824C60.0637 54.4187 59.706 54.2705 59.333 54.2705ZM38.2393 41.6143C38.2393 41.9872 38.0911 42.3449 37.8274 42.6086C37.5637 42.8724 37.206 43.0205 36.833 43.0205H31.208C30.835 43.0205 30.4774 42.8724 30.2136 42.6086C29.9499 42.3449 29.8018 41.9872 29.8018 41.6143C29.8018 41.2413 29.9499 40.8836 30.2136 40.6199C30.4774 40.3562 30.835 40.208 31.208 40.208H36.833C37.206 40.208 37.5637 40.3562 37.8274 40.6199C38.0911 40.8836 38.2393 41.2413 38.2393 41.6143ZM28.3955 28.958H34.0205C34.3935 28.958 34.7512 29.1062 35.0149 29.3699C35.2786 29.6336 35.4268 29.9913 35.4268 30.3643C35.4268 30.7372 35.2786 31.0949 35.0149 31.3586C34.7512 31.6223 34.3935 31.7705 34.0205 31.7705H28.3955C28.0225 31.7705 27.6649 31.6223 27.4011 31.3586C27.1374 31.0949 26.9893 30.7372 26.9893 30.3643C26.9893 29.9913 27.1374 29.6336 27.4011 29.3699C27.6649 29.1062 28.0225 28.958 28.3955 28.958ZM28.3955 47.2393H34.0205C34.3935 47.2393 34.7512 47.3874 35.0149 47.6511C35.2786 47.9149 35.4268 48.2725 35.4268 48.6455C35.4268 49.0185 35.2786 49.3762 35.0149 49.6399C34.7512 49.9036 34.3935 50.0518 34.0205 50.0518H28.3955C28.0225 50.0518 27.6649 49.9036 27.4011 49.6399C27.1374 49.3762 26.9893 49.0185 26.9893 48.6455C26.9893 48.2725 27.1374 47.9149 27.4011 47.6511C27.6649 47.3874 28.0225 47.2393 28.3955 47.2393ZM43.8643 35.9893H55.1143V54.2705H43.8643V35.9893Z" fill="black" fill-opacity="0.8"/>
<path d="M50.8955 47.2393H48.083C47.71 47.2393 47.3524 47.3874 47.0886 47.6511C46.8249 47.9149 46.6768 48.2725 46.6768 48.6455C46.6768 49.0185 46.8249 49.3762 47.0886 49.6399C47.3524 49.9036 47.71 50.0518 48.083 50.0518H50.8955C51.2685 50.0518 51.6262 49.9036 51.8899 49.6399C52.1536 49.3762 52.3018 49.0185 52.3018 48.6455C52.3018 48.2725 52.1536 47.9149 51.8899 47.6511C51.6262 47.3874 51.2685 47.2393 50.8955 47.2393Z" fill="black" fill-opacity="0.8"/>
<path d="M48.083 43.0205H50.8955C51.2685 43.0205 51.6262 42.8724 51.8899 42.6086C52.1536 42.3449 52.3018 41.9872 52.3018 41.6143C52.3018 41.2413 52.1536 40.8836 51.8899 40.6199C51.6262 40.3562 51.2685 40.208 50.8955 40.208H48.083C47.71 40.208 47.3524 40.3562 47.0886 40.6199C46.8249 40.8836 46.6768 41.2413 46.6768 41.6143C46.6768 41.9872 46.8249 42.3449 47.0886 42.6086C47.3524 42.8724 47.71 43.0205 48.083 43.0205Z" fill="black" fill-opacity="0.8"/>
<rect x="0.75" y="1.3125" width="77.791" height="77.791" rx="38.8955" stroke="black" stroke-opacity="0.5" stroke-width="1.5"/>
</svg>
