<svg width="20" height="21" viewBox="0 0 20 21" fill="none" xmlns="http://www.w3.org/2000/svg">
<path d="M17.5 10.6055C17.5 14.7476 14.1422 18.1055 10 18.1055C5.85785 18.1055 2.5 14.7476 2.5 10.6055C2.5 6.46334 5.85785 3.10547 10 3.10547C14.1422 3.10547 17.5 6.46334 17.5 10.6055Z" fill="black" fill-opacity="0.1"/>
<path fill-rule="evenodd" clip-rule="evenodd" d="M10 2.48047C10 2.48047 11.6526 2.48047 13.1628 3.11923C13.1628 3.11923 14.621 3.736 15.7452 4.86023C15.7452 4.86023 16.8695 5.98446 17.4862 7.44266C17.4862 7.44266 18.125 8.95286 18.125 10.6055C18.125 10.6055 18.125 12.2581 17.4862 13.7683C17.4862 13.7683 16.8695 15.2265 15.7452 16.3507C15.7452 16.3507 14.621 17.4749 13.1628 18.0917C13.1628 18.0917 11.6526 18.7305 10 18.7305C10 18.7305 8.34739 18.7305 6.83719 18.0917C6.83719 18.0917 5.37899 17.4749 4.25476 16.3507C4.25476 16.3507 3.13053 15.2265 2.51376 13.7683C2.51376 13.7683 1.875 12.2581 1.875 10.6055C1.875 10.6055 1.875 8.95286 2.51376 7.44266C2.51376 7.44266 3.13053 5.98445 4.25476 4.86023C4.25476 4.86023 5.37899 3.736 6.83719 3.11923C6.83719 3.11923 8.34739 2.48047 10 2.48047ZM10 3.73047C10 3.73047 8.60087 3.73047 7.32413 4.27048C7.32413 4.27048 6.09047 4.79228 5.13864 5.74411C5.13864 5.74411 4.18681 6.69594 3.66502 7.9296C3.66502 7.9296 3.125 9.20634 3.125 10.6055C3.125 10.6055 3.125 12.0046 3.66502 13.2813C3.66502 13.2813 4.18681 14.515 5.13864 15.4668C5.13864 15.4668 6.09047 16.4187 7.32413 16.9405C7.32413 16.9405 8.60087 17.4805 10 17.4805C10 17.4805 11.3991 17.4805 12.6759 16.9405C12.6759 16.9405 13.9095 16.4187 14.8614 15.4668C14.8614 15.4668 15.8132 14.515 16.335 13.2813C16.335 13.2813 16.875 12.0046 16.875 10.6055C16.875 10.6055 16.875 9.20634 16.335 7.9296C16.335 7.9296 15.8132 6.69594 14.8614 5.74411C14.8614 5.74411 13.9095 4.79228 12.6759 4.27048C12.6759 4.27048 11.3991 3.73047 10 3.73047Z" fill="#1C1C1C"/>
<path d="M10 14.9805H10.625C10.9702 14.9805 11.25 14.7006 11.25 14.3555C11.25 14.0103 10.9702 13.7305 10.625 13.7305V9.98047C10.625 9.63529 10.3452 9.35547 10 9.35547H9.375C9.02982 9.35547 8.75 9.63529 8.75 9.98047C8.75 10.3256 9.02982 10.6055 9.375 10.6055V14.3555C9.375 14.7006 9.65482 14.9805 10 14.9805Z" fill="#1C1C1C"/>
<path d="M10.7812 7.16797C10.7812 7.68574 10.3615 8.10547 9.84375 8.10547C9.32602 8.10547 8.90625 7.68574 8.90625 7.16797C8.90625 6.6502 9.32602 6.23047 9.84375 6.23047C10.3615 6.23047 10.7812 6.6502 10.7812 7.16797Z" fill="#1C1C1C"/>
</svg>
